#!OML:ASF F:\VICON\USERDATA\INSTALL\rory3\rory3.ASF
:FULLY-SPECIFIED
:DEGREES
1599
root 3.4438 18.2478 10.3731 3.77179 -62.0008 -2.67808
lowerback 11.8086 4.93164 2.67065
upperback 3.36833 6.69261 -1.57772
thorax -2.55472 3.29597 -4.02846
lowerneck -13.3533 8.83112 -8.73283
upperneck 47.4651 13.3522 5.84242
head 19.5018 4.04705 6.76744
rclavicle 1.77316e-013 -4.59193e-014
rhumerus -31.4899 -12.3716 -79.4017
rradius 44.1373
rwrist 2.58174
rhand -15.6131 7.8796
rfingers 7.12502
rthumb 10.5734 -21.8344
lclavicle 1.77316e-013 -4.59193e-014
lhumerus -43.3579 13.4048 71.944
lradius 41.2841
lwrist 2.61635
lhand -19.4055 28.2839
lfingers 7.12502
lthumb 6.91372 58.151
rfemur -8.24648 -8.01054 30.4097
rtibia 33.3251
rfoot -8.54881 2.46954
rtoes 9.26342
lfemur -20.5425 -12.202 -12.6549
ltibia 43.1122
lfoot -7.11585 -0.872242
ltoes -14.3607
1600
root 3.52354 18.2434 10.334 3.68116 -61.4379 -2.70248
lowerback 11.8573 4.82506 2.63136
upperback 3.36357 6.55169 -1.49583
thorax -2.61266 3.22413 -3.91049
lowerneck -13.3023 8.78597 -8.67973
upperneck 47.3113 13.3044 5.73372
head 19.4123 4.04264 6.67918
rclavicle 1.635e-014 8.34896e-015
rhumerus -32.0637 -12.6836 -79.4698
rradius 43.6052
rwrist 2.77372
rhand -15.617 7.25464
rfingers 7.12502
rthumb 10.5696 -22.4596
lclavicle 1.635e-014 8.34896e-015
lhumerus -43.1001 13.4148 71.9757
lradius 41.5722
lwrist 2.69228
lhand -18.7946 29.0059
lfingers 7.12502
lthumb 7.5034 58.8528
rfemur -8.6343 -8.39275 30.5051
rtibia 33.5522
rfoot -8.51521 2.27921
rtoes 10.0516
lfemur -19.9044 -11.6608 -12.6538
ltibia 44.1215
lfoot -6.84428 -1.08909
ltoes -15.3759
1601
root 3.60021 18.2379 10.2971 3.65216 -60.9551 -2.75549
lowerback 11.8236 4.74051 2.55929
upperback 3.35368 6.43564 -1.40576
thorax -2.63323 3.1659 -3.76086
lowerneck -13.2594 8.77573 -8.6031
upperneck 47.2142 13.2675 5.71045
head 19.3499 4.05259 6.63633
rclavicle -6.06293e-014 1.19271e-015
rhumerus -32.6295 -12.9396 -79.4845
rradius 43.0107
rwrist 3.03389
rhand -15.5731 7.07911
rfingers 7.12502
rthumb 10.6119 -22.6329
lclavicle -6.06293e-014 1.19271e-015
lhumerus -42.857 13.3461 72.0322
lradius 41.7867
lwrist 2.73204
lhand -18.9943 29.2999
lfingers 7.12502
lthumb 7.31061 59.1536
rfemur -9.01549 -8.81287 30.631
rtibia 33.7081
rfoot -8.45649 2.07794
rtoes 10.7179
lfemur -19.2626 -11.1011 -12.6229
ltibia 45.0592
lfoot -6.4018 -1.37532
ltoes -15.0739
1602
root 3.67482 18.2388 10.2641 3.39867 -60.6052 -2.55956
lowerback 11.7686 4.68009 2.43576
upperback 3.34227 6.34222 -1.39097
thorax -2.63819 3.11966 -3.66155
lowerneck -13.2264 8.78645 -8.63084
upperneck 47.1784 13.2328 5.83971
head 19.2951 4.06151 6.68831
rclavicle -5.55603e-014 5.96354e-015
rhumerus -33.219 -13.2227 -79.4889
rradius 42.3452
rwrist 3.4693
rhand -15.3667 7.39168
rfingers 7.12502
rthumb 10.8111 -22.3101
lclavicle -5.55603e-014 5.96354e-015
lhumerus -42.5864 13.1305 72.0315
lradius 41.8611
lwrist 2.72007
lhand -19.1903 28.9302
lfingers 7.12502
lthumb 7.12146 58.7904
rfemur -9.28943 -8.97375 30.5685
rtibia 33.7809
rfoot -8.14181 1.88827
rtoes 8.73635
lfemur -18.5046 -10.5412 -12.7358
ltibia 45.9028
lfoot -6.18017 -1.69292
ltoes -14.887
1603
root 3.74804 18.2465 10.2304 3.02812 -60.1072 -2.26325
lowerback 11.7547 4.56597 2.3056
upperback 3.32913 6.17701 -1.3928
thorax -2.67107 3.03708 -3.57098
lowerneck -13.1879 8.77396 -8.68353
upperneck 47.1365 13.1989 5.90389
head 19.244 4.05657 6.71272
rclavicle 1.70458e-014 -1.47101e-014
rhumerus -33.8841 -13.0777 -79.6205
rradius 41.8119
rwrist 3.58994
rhand -15.2249 7.56408
rfingers 7.12502
rthumb 10.9479 -22.1305
lclavicle 1.70458e-014 -1.47101e-014
lhumerus -42.354 12.9786 72.0084
lradius 42.0226
lwrist 2.6583
lhand -19.0399 28.456
lfingers 7.12502
lthumb 7.26665 58.3113
rfemur -9.50859 -9.15923 30.4536
rtibia 33.8154
rfoot -7.83871 1.63616
rtoes 6.09247
lfemur -17.7005 -9.97415 -12.8635
ltibia 46.6326
lfoot -6.12307 -2.11106
ltoes -15.7538
